<?xml version="1.0" encoding="UTF-8" standalone="no"?>
<!--
  #%L
  protoc-gen-quickbuf
  %%
  Copyright (C) 2019 - 2024 HEBI Robotics
  %%
  Licensed under the Apache License, Version 2.0 (the "License");
  you may not use this file except in compliance with the License.
  You may obtain a copy of the License at

       http://www.apache.org/licenses/LICENSE-2.0

  Unless required by applicable law or agreed to in writing, software
  distributed under the License is distributed on an "AS IS" BASIS,
  WITHOUT WARRANTIES OR CONDITIONS OF ANY KIND, either express or implied.
  See the License for the specific language governing permissions and
  limitations under the License.
  #L%
  -->

<svg
   width="1024"
   height="1024"
   version="1.1"
   id="svg1508"
   sodipodi:docname="icon-square.svg"
   inkscape:version="1.2.1 (9c6d41e410, 2022-07-14)"
   xml:space="preserve"
   inkscape:export-filename="icon-square-44.png"
   inkscape:export-xdpi="4.125"
   inkscape:export-ydpi="4.125"
   xmlns:inkscape="http://www.inkscape.org/namespaces/inkscape"
   xmlns:sodipodi="http://sodipodi.sourceforge.net/DTD/sodipodi-0.dtd"
   xmlns="http://www.w3.org/2000/svg"
   xmlns:svg="http://www.w3.org/2000/svg"
   xmlns:rdf="http://www.w3.org/1999/02/22-rdf-syntax-ns#"
   xmlns:cc="http://creativecommons.org/ns#"
   xmlns:dc="http://purl.org/dc/elements/1.1/"><title
     id="title5583">icon</title><sodipodi:namedview
     id="namedview1510"
     pagecolor="#ffffff"
     bordercolor="#111111"
     borderopacity="1"
     inkscape:showpageshadow="0"
     inkscape:pageopacity="0"
     inkscape:pagecheckerboard="1"
     inkscape:deskcolor="#d1d1d1"
     showgrid="false"
     inkscape:zoom="0.32247936"
     inkscape:cx="181.40696"
     inkscape:cy="561.27623"
     inkscape:window-width="1920"
     inkscape:window-height="1137"
     inkscape:window-x="1912"
     inkscape:window-y="-8"
     inkscape:window-maximized="1"
     inkscape:current-layer="svg1508"
     showguides="false"><inkscape:grid
       type="xygrid"
       id="grid1626" /></sodipodi:namedview><defs
     id="defs1502"><rect
       x="-353.511"
       y="539.56942"
       width="976.8067"
       height="294.5925"
       id="rect1156" /><rect
       x="-381.41976"
       y="124.03895"
       width="1773.7569"
       height="387.62171"
       id="rect544" /><rect
       x="462.04507"
       y="223.2701"
       width="111.63505"
       height="71.322394"
       id="rect538" /><filter
       id="blur_shadow"
       x="-0.034951456"
       y="-0.034951456"
       width="1.0699029"
       height="1.0699029"><feGaussianBlur
         stdDeviation="12"
         id="feGaussianBlur1499" /></filter><rect
       x="-37.986927"
       y="54.26704"
       width="511.66064"
       height="190.70988"
       id="rect1457" /><rect
       x="-37.986927"
       y="54.26704"
       width="511.66064"
       height="190.70988"
       id="rect1457-4" /></defs><rect
     style="display:inline;fill:#2a3b43;fill-opacity:1"
     id="rect1555"
     width="1024"
     height="1024"
     x="0"
     y="0"
     inkscape:label="background" /><path
     d="m 924,355.412 c 0,-9.782 0,-18.35 -0.056,-28.133 -0.049,-8.241 -0.144,-16.48 -0.368,-24.716 -0.484,-17.954 -1.543,-36.061 -4.736,-53.813 -3.238,-18.01 -8.526,-34.77 -16.859,-51.133 a 171.963,171.963 0 0 0 -31.661,-43.559 172.06,172.06 0 0 0 -43.574,-31.64 c -16.381,-8.335 -33.159,-13.621 -51.188,-16.858 -17.755,-3.188 -35.867,-4.245 -53.82,-4.73 -8.243,-0.223 -16.485,-0.317 -24.73,-0.368 -9.788,-0.06 -19.576,-0.055 -29.364,-0.055 L 553.997,100 h -84.999 l -111.637,0.407 c -9.807,0 -19.614,-0.005 -29.421,0.055 -8.262,0.051 -16.52,0.145 -24.778,0.368 -17.995,0.485 -36.148,1.543 -53.945,4.735 -18.053,3.236 -34.857,8.52 -51.259,16.849 a 172.405,172.405 0 0 0 -43.667,31.644 171.994,171.994 0 0 0 -31.718,43.551 c -8.356,16.372 -13.654,33.143 -16.9,51.162 -3.196,17.746 -4.255,35.846 -4.742,53.792 -0.222,8.237 -0.318,16.476 -0.368,24.716 -0.06,9.784 -0.563,21.937 -0.563,31.72 v 195.999 l 0.508,112.429 c 0,9.796 -0.004,19.592 0.055,29.388 0.05,8.252 0.146,16.502 0.369,24.751 0.486,17.976 1.547,36.109 4.746,53.886 3.245,18.032 8.542,34.818 16.891,51.201 a 172.24,172.24 0 0 0 31.722,43.619 172.444,172.444 0 0 0 43.659,31.684 c 16.412,8.346 33.224,13.639 51.288,16.88 17.789,3.193 35.936,4.252 53.924,4.737 8.258,0.223 16.517,0.318 24.779,0.368 9.807,0.059 19.613,0.059 29.42,0.059 h 310.283 c 9.788,0 19.576,0 29.364,-0.059 8.245,-0.05 16.487,-0.145 24.73,-0.368 17.96,-0.486 36.078,-1.546 53.841,-4.741 18.018,-3.241 34.788,-8.532 51.159,-16.873 a 172.004,172.004 0 0 0 43.582,-31.687 172.23,172.23 0 0 0 31.659,-43.612 c 8.337,-16.391 13.625,-33.184 16.865,-51.229 3.19,-17.77 4.248,-35.896 4.733,-53.865 0.223,-8.25 0.318,-16.5 0.367,-24.751 C 924,687.019 924,677.223 924,667.427 Z"
     fill="#fff"
     id="path1506"
     style="display:inline;fill:#2a3b43;fill-opacity:1" /><metadata
     id="metadata5581"><rdf:RDF><cc:Work
         rdf:about=""><dc:title>icon</dc:title></cc:Work></rdf:RDF></metadata><text
     xml:space="preserve"
     id="text1455"
     style="font-style:normal;font-variant:normal;font-weight:600;font-stretch:normal;font-size:30.0795px;line-height:1.25;font-family:Montserrat;-inkscape-font-specification:'Montserrat, Semi-Bold';font-variant-ligatures:normal;font-variant-caps:normal;font-variant-numeric:normal;font-variant-east-asian:normal;letter-spacing:0px;word-spacing:0px;white-space:pre;shape-inside:url(#rect1457);display:inline;fill:#e96e38;fill-opacity:1;stroke:none"
     transform="matrix(7.9788632,0,0,7.9788632,446.80731,-150.50546)"><tspan
       x="-37.986328"
       y="81.913452"
       id="tspan9891">Quick</tspan></text><text
     xml:space="preserve"
     id="text1455-5"
     style="font-style:normal;font-variant:normal;font-weight:600;font-stretch:normal;font-size:23.7294px;line-height:1.25;font-family:Montserrat;-inkscape-font-specification:'Montserrat, Semi-Bold';font-variant-ligatures:normal;font-variant-caps:normal;font-variant-numeric:normal;font-variant-east-asian:normal;letter-spacing:0px;word-spacing:0px;white-space:pre;shape-inside:url(#rect1457-4);display:inline;fill:#d3d3d3;fill-opacity:1;stroke:none"
     transform="matrix(7.9788632,0,0,7.9788632,455.92195,97.875165)"><tspan
       x="-37.986328"
       y="76.077116"
       id="tspan9893">Buffers</tspan></text></svg>
